<svg width="200" height="40" viewBox="0 0 200 40" fill="none" xmlns="http://www.w3.org/2000/svg">
<path d="M3.198 32.576V37H2.12V27.2H7.692V28.264H3.198V31.512H7.692V32.576H3.198ZM10.6282 27.2V28.558H9.57817V27.2H10.6282ZM10.6282 29.776V37H9.57817V29.776H10.6282ZM13.8217 27.2V35.362C13.8217 35.824 13.9897 35.992 14.4937 35.992H14.7177V37H14.4937C13.1497 37 12.7717 36.51 12.7717 35.278V27.2H13.8217ZM19.0634 36.132C19.8894 36.132 20.6314 35.67 20.7994 34.732H21.8774C21.6954 36.538 20.3234 37.14 19.0634 37.14C17.7194 37.14 16.2354 36.44 16.2354 34.312V32.408C16.2354 30.28 17.7194 29.58 19.0634 29.58C20.4074 29.58 21.8914 30.28 21.8914 32.408V33.626H17.2854V34.326C17.2854 35.53 18.1254 36.132 19.0634 36.132ZM20.8414 32.66V32.394C20.8414 31.19 20.0014 30.588 19.0634 30.588C18.1254 30.588 17.2854 31.19 17.2854 32.394V32.66H20.8414ZM29.6627 37.14C27.8847 37.14 26.6247 35.978 26.4847 34.102H27.5907C27.7587 35.362 28.6127 36.076 29.6627 36.076C30.7687 36.076 31.5387 35.558 31.5387 34.522C31.5387 33.64 31.0627 33.108 29.9567 32.8L28.7107 32.45C27.2547 32.044 26.6527 30.854 26.6527 29.664C26.6527 27.984 27.9827 27.06 29.5507 27.06C31.2447 27.06 32.2947 28.012 32.5047 29.678H31.3987C31.1887 28.74 30.6007 28.124 29.5507 28.124C28.3747 28.124 27.7447 28.81 27.7447 29.664C27.7447 30.56 28.1927 31.12 29.2007 31.4L30.3487 31.722C31.7347 32.114 32.6307 32.968 32.6307 34.522C32.6307 36.09 31.6227 37.14 29.6627 37.14ZM36.9721 36.132C37.7981 36.132 38.5401 35.67 38.7081 34.732H39.7861C39.6041 36.538 38.2321 37.14 36.9721 37.14C35.6281 37.14 34.1441 36.44 34.1441 34.312V32.408C34.1441 30.28 35.6281 29.58 36.9721 29.58C38.3161 29.58 39.8001 30.28 39.8001 32.408V33.626H35.1941V34.326C35.1941 35.53 36.0341 36.132 36.9721 36.132ZM38.7501 32.66V32.394C38.7501 31.19 37.9101 30.588 36.9721 30.588C36.0341 30.588 35.1941 31.19 35.1941 32.394V32.66H38.7501ZM44.3499 29.58C45.6239 29.58 47.0099 30.196 47.1639 32.058H46.0999C45.9599 31.078 45.1899 30.588 44.3499 30.588C43.4119 30.588 42.5719 31.19 42.5719 32.394V34.326C42.5719 35.53 43.4119 36.132 44.3499 36.132C45.1899 36.132 45.9599 35.642 46.0999 34.662H47.1639C47.0099 36.524 45.6239 37.14 44.3499 37.14C43.0059 37.14 41.5219 36.454 41.5219 34.312V32.408C41.5219 30.28 43.0059 29.58 44.3499 29.58ZM51.688 37.14C50.498 37.14 48.902 36.496 48.902 34.354V29.776H49.952V34.284C49.952 35.572 50.834 36.132 51.688 36.132C52.57 36.132 53.424 35.516 53.424 34.326V29.776H54.474V37H53.424V36.258C53.06 36.832 52.304 37.14 51.688 37.14ZM57.7012 29.776V30.532C58.0652 29.944 58.8212 29.65 59.4792 29.65H59.9412V30.658H59.4792C58.5412 30.658 57.7012 31.26 57.7012 32.464V37H56.6512V29.776H57.7012ZM62.3583 27.2V28.558H61.3083V27.2H62.3583ZM62.3583 29.776V37H61.3083V29.776H62.3583ZM65.9158 30.784V35.362C65.9158 35.824 66.0838 35.992 66.5878 35.992H67.6938V37H66.5878C65.2438 37 64.8658 36.51 64.8658 35.278V30.784H63.8438V29.776H64.8658V28.138H65.9158V29.776H67.6938V30.784H65.9158ZM74.7963 29.776L71.5203 38.834C71.3243 39.394 70.8343 39.562 69.9243 39.576H69.5183V38.568H70.0503C70.4983 38.568 70.5963 38.4 70.6803 38.148L71.0583 37.112L68.4123 29.776H69.5323L71.6043 35.642L73.6763 29.776H74.7963ZM82.4177 28.208H81.3117C80.8077 28.208 80.6397 28.376 80.6397 28.838V29.776H82.4177V30.784H80.6397V37H79.5897V30.784H78.5677V29.776H79.5897V28.922C79.5897 27.69 79.9677 27.2 81.3117 27.2H82.4177V28.208ZM88.0603 34.326V32.394C88.0603 31.19 87.2203 30.588 86.2823 30.588C85.3443 30.588 84.5043 31.19 84.5043 32.394V34.326C84.5043 35.53 85.3443 36.132 86.2823 36.132C87.2203 36.132 88.0603 35.53 88.0603 34.326ZM89.1103 32.408V34.312C89.1103 36.44 87.6263 37.14 86.2823 37.14C84.9383 37.14 83.4543 36.44 83.4543 34.312V32.408C83.4543 30.28 84.9383 29.58 86.2823 29.58C87.6263 29.58 89.1103 30.28 89.1103 32.408ZM92.1465 29.776V30.532C92.5105 29.944 93.2665 29.65 93.9245 29.65H94.3865V30.658H93.9245C92.9865 30.658 92.1465 31.26 92.1465 32.464V37H91.0965V29.776H92.1465ZM99.0451 37V27.2H102.307C104.393 27.2 105.135 28.586 105.135 29.888C105.135 30.84 104.687 31.596 104.057 31.988C104.953 32.436 105.373 33.36 105.373 34.256C105.373 35.614 104.645 37 102.545 37H99.0451ZM102.545 32.576H100.123V35.936H102.545C103.609 35.936 104.281 35.306 104.281 34.256C104.281 33.206 103.609 32.576 102.545 32.576ZM104.043 29.888C104.043 28.95 103.413 28.264 102.307 28.264H100.123V31.512H102.307C103.413 31.512 104.043 30.826 104.043 29.888ZM108.209 29.776V30.532C108.573 29.944 109.329 29.65 109.987 29.65H110.449V30.658H109.987C109.049 30.658 108.209 31.26 108.209 32.464V37H107.159V29.776H108.209ZM116.199 34.326V32.394C116.199 31.19 115.359 30.588 114.421 30.588C113.483 30.588 112.643 31.19 112.643 32.394V34.326C112.643 35.53 113.483 36.132 114.421 36.132C115.359 36.132 116.199 35.53 116.199 34.326ZM117.249 32.408V34.312C117.249 36.44 115.765 37.14 114.421 37.14C113.077 37.14 111.593 36.44 111.593 34.312V32.408C111.593 30.28 113.077 29.58 114.421 29.58C115.765 29.58 117.249 30.28 117.249 32.408ZM123.478 29.776L125.074 35.404L126.474 29.776H127.566L125.662 37H124.57L122.96 31.33L121.35 37H120.258L118.354 29.776H119.446L120.846 35.404L122.442 29.776H123.478ZM133.574 31.89H132.496C132.37 31.05 131.81 30.588 130.914 30.588C130.13 30.588 129.556 30.98 129.556 31.638C129.556 32.24 129.962 32.506 130.55 32.646L131.908 32.982C133 33.248 133.756 33.794 133.756 35.124C133.756 36.552 132.678 37.14 131.208 37.14C129.696 37.14 128.422 36.44 128.31 34.69H129.388C129.486 35.712 130.242 36.132 131.208 36.132C132.216 36.132 132.678 35.726 132.692 35.096C132.692 34.634 132.482 34.228 131.684 34.032L130.27 33.682C129.486 33.5 128.492 32.968 128.492 31.68C128.492 30.35 129.598 29.58 130.928 29.58C132.384 29.58 133.462 30.28 133.574 31.89ZM138.113 36.132C138.939 36.132 139.681 35.67 139.849 34.732H140.927C140.745 36.538 139.373 37.14 138.113 37.14C136.769 37.14 135.285 36.44 135.285 34.312V32.408C135.285 30.28 136.769 29.58 138.113 29.58C139.457 29.58 140.941 30.28 140.941 32.408V33.626H136.335V34.326C136.335 35.53 137.175 36.132 138.113 36.132ZM139.891 32.66V32.394C139.891 31.19 139.051 30.588 138.113 30.588C137.175 30.588 136.335 31.19 136.335 32.394V32.66H139.891ZM143.909 29.776V30.532C144.273 29.944 145.029 29.65 145.687 29.65H146.149V30.658H145.687C144.749 30.658 143.909 31.26 143.909 32.464V37H142.859V29.776H143.909Z" fill="#1B273C"/>
<path d="M10.4537 1C8.16139 1 6.12199 1.77582 4.62012 3.04247V5.5916C5.88486 4.21412 7.95587 2.99497 10.4853 2.99497C14.5799 2.99497 17.726 6.20909 17.726 10.5157V16.4689C19.0856 15.0281 19.9393 12.954 19.9393 10.5157C19.9235 5.03744 15.7024 1 10.4537 1Z" fill="#1B273C"/>
<path d="M3.24491 10.3574V4.40411C1.88532 5.84493 1 7.91906 1 10.3574C1 15.8356 5.22107 19.8731 10.4697 19.8731C12.7621 19.8731 14.8015 19.0972 16.335 17.8306V15.2815C15.0386 16.6589 12.936 17.8781 10.4539 17.8781C6.35933 17.8781 3.24491 14.6481 3.24491 10.3574Z" fill="#1B273C"/>
<path d="M32.6816 1.30084H26.2788V19.5722H28.4289V3.18498H32.6499C35.0529 3.18498 36.3019 4.67329 36.3019 6.62076C36.3019 8.56824 35.0529 10.0249 32.6499 10.0249H29.7727V11.909H32.6657C36.2544 11.909 38.4994 9.69239 38.4994 6.5891C38.4994 3.48581 36.2703 1.30084 32.6816 1.30084Z" fill="#1B273C"/>
<path d="M53.9614 5.29111L55.5425 4.10353C54.4357 2.33008 52.3329 1 49.8981 1C49.1867 1 48.5226 1.11084 47.906 1.30085V3.35932C48.5068 3.10597 49.2341 2.99513 49.8349 2.99513C51.495 2.99513 52.9812 3.81851 53.9456 5.29111H53.9614Z" fill="#1B273C"/>
<path d="M51.4945 9.69236L49.4709 8.72655C47.8109 7.91906 46.5462 7.3174 46.5462 5.38576V1.93414C45.2182 2.74163 44.3013 4.07161 44.3013 5.78159C44.3013 8.36238 46.2932 9.62903 48.4117 10.6582L50.4511 11.624C52.2533 12.479 53.4864 13.144 53.4864 15.1073V18.8439C54.8618 17.9572 55.7313 16.5798 55.7313 14.7748C55.7313 12.3048 54.1504 10.959 51.4787 9.67653L51.4945 9.69236Z" fill="#1B273C"/>
<path d="M44.7599 14.759L43.1631 15.9465C44.5702 18.3534 47.005 19.8735 49.8193 19.8735C50.6731 19.8735 51.4478 19.731 52.1751 19.4934V17.4666C51.4636 17.72 50.6256 17.8783 49.8509 17.8783C47.4952 17.8783 45.8667 16.4374 44.7599 14.759Z" fill="#1B273C"/>
<path d="M59.9526 1.33252L66.8929 19.9048H67.6675L68.4422 18.0206L62.324 1.33252H59.9526Z" fill="#1B273C"/>
<path d="M80.2041 13.3498L81.374 16.1998L86.8914 1.33252H84.5516L80.2041 13.3498Z" fill="#1B273C"/>
<path d="M73.0583 1.03168L68.1575 13.2865L69.1851 16.1048L73.4378 5.43328L79.2081 19.9047H80.0144L80.6468 18.1314L73.8172 1.03168H73.0583Z" fill="#1B273C"/>
<path d="M93.468 13.9515L96.3769 7.20658L95.2387 4.51495L88.8359 19.6039H91.0967L92.646 15.8831H100.108L99.27 13.9515H93.468Z" fill="#1B273C"/>
<path d="M96.7407 1.03168L95.9661 2.77332L103.143 19.6039H105.436L97.5312 1.03168H96.7407Z" fill="#1B273C"/>
<path d="M121.577 1.33252H106.574V3.26416H121.577V1.33252Z" fill="#1B273C"/>
<path d="M115.127 4.62579H112.977V19.6039H115.127V4.62579Z" fill="#1B273C"/>
<path d="M121.593 17.0864C120.818 17.0864 120.17 17.7356 120.17 18.5432C120.17 19.3508 120.818 20 121.593 20C122.368 20 123 19.3508 123 18.5432C123 17.7356 122.368 17.0864 121.593 17.0864Z" fill="#1B273C"/>
</svg>
