<?xml version="1.0" encoding="UTF-8"?>
<svg width="130px" height="58px" viewBox="0 0 130 58" version="1.1" xmlns="http://www.w3.org/2000/svg" xmlns:xlink="http://www.w3.org/1999/xlink">
    <!-- Generator: Sketch 48.2 (47327) - http://www.bohemiancoding.com/sketch -->
    <title>logo</title>
    <desc>Created with Sketch.</desc>
    <defs>
        <polygon id="path-1" points="0 0.611922581 16.2706323 0.611922581 16.2706323 16.999471 0 16.999471"></polygon>
        <polygon id="path-3" points="0 57.5103226 129.461548 57.5103226 129.461548 -1.42108547e-14 0 -1.42108547e-14"></polygon>
    </defs>
    <g id="Chrome" stroke="none" stroke-width="1" fill="none" fill-rule="evenodd" transform="translate(-106.000000, -21.000000)">
        <g id="logo" transform="translate(106.000000, 21.000000)">
            <path d="M10.0256839,0.000167741935 C7.59342581,0.000167741935 5.42368387,0.821264516 3.8402,2.16990968 L3.8402,4.86636129 C5.18800645,3.40113548 7.38710323,2.1112 10.0558774,2.1112 C14.3945226,2.1112 17.7359419,5.51216774 17.7359419,10.0848129 L17.7359419,16.3885548 C19.1726516,14.8637806 20.0818129,12.6655226 20.0818129,10.0848129 C20.0818129,4.28094194 15.5963935,0.000167741935 10.0256839,0.000167741935" id="Fill-1" fill="#FFFFFF"></path>
            <g id="Group-5" transform="translate(0.000000, 2.994194)">
                <mask id="mask-2" fill="white">
                    <use xlink:href="#path-1"></use>
                </mask>
                <g id="Clip-4"></g>
                <path d="M2.37405161,6.91482581 L2.37405161,0.611922581 C0.938180645,2.13669677 -0.000335483871,4.33495484 -0.000335483871,6.91482581 C-0.000335483871,12.7195355 4.48592258,16.999471 10.0557935,16.999471 C12.4888903,16.999471 14.6577935,16.1792129 16.2706323,14.8305677 L16.2706323,12.1332774 C14.8926323,13.5993419 12.6650194,14.8884387 10.0256,14.8884387 C5.68695484,14.8884387 2.37405161,11.4589548 2.37405161,6.91482581" id="Fill-3" fill="#FFFFFF" mask="url(#mask-2)"></path>
            </g>
            <path d="M33.6111226,0.322483871 L26.8100258,0.322483871 L26.8100258,19.6715161 L29.0963484,19.6715161 L29.0963484,2.31609677 L33.5826065,2.31609677 C36.1331226,2.31609677 37.4524129,3.89958065 37.4524129,5.95106452 C37.4524129,8.03274194 36.1331226,9.55751613 33.5826065,9.55751613 L30.5330581,9.55751613 L30.5330581,11.551129 L33.6111226,11.551129 C37.4230581,11.551129 39.7974452,9.20525806 39.7974452,5.92170968 C39.7974452,2.66751613 37.4230581,0.322483871 33.6111226,0.322483871" id="Fill-6" fill="#FFFFFF"></path>
            <path d="M56.1875097,4.5442129 L57.8582194,3.28363226 C56.6857032,1.40743871 54.4572516,8.38709677e-05 51.8773806,8.38709677e-05 C51.1158323,8.38709677e-05 50.4121548,0.117503226 49.7671871,0.322148387 L49.7671871,2.49272903 C50.4121548,2.22769677 51.1737032,2.11111613 51.8195097,2.11111613 C53.5791226,2.11111613 55.160929,2.99008387 56.1875097,4.5442129" id="Fill-8" fill="#FFFFFF"></path>
            <path d="M53.5787871,9.20584516 L51.4375613,8.17926452 C49.6796258,7.32965161 48.3301419,6.68468387 48.3301419,4.63236129 L48.3301419,0.996554839 C46.9227871,1.84700645 45.9549161,3.25436129 45.9549161,5.07184516 C45.9549161,7.79849032 48.0667871,9.14713548 50.3237548,10.2315871 L52.4934968,11.2581677 C54.3990452,12.1664903 55.7183355,12.8701677 55.7183355,14.9518452 L55.7183355,18.9088774 C57.1835613,17.9712 58.0927226,16.5051355 58.0927226,14.6004258 C58.0927226,11.9912 56.4220129,10.5536516 53.5787871,9.20584516" id="Fill-10" fill="#FFFFFF"></path>
            <path d="M46.4251806,14.5702323 L44.7242774,15.8308129 C46.2196968,18.381329 48.7995677,19.9941677 51.7895677,19.9941677 C52.6978903,19.9941677 53.5198258,19.8473935 54.2822129,19.5840387 L54.2822129,17.4436516 C53.5198258,17.7078452 52.6400194,17.8831355 51.8197613,17.8831355 C49.3271161,17.8831355 47.5976968,16.3583613 46.4251806,14.5702323" id="Fill-12" fill="#FFFFFF"></path>
            <polygon id="Fill-14" fill="#FFFFFF" points="62.5531484 0.355193548 69.9119871 20.0262903 70.7330839 20.0262903 71.5533419 18.0326774 65.0743097 0.355193548"></polygon>
            <polygon id="Fill-16" fill="#FFFFFF" points="84.0426516 13.0783355 85.2738774 16.098529 91.1372968 0.355109677 88.6454903 0.355109677"></polygon>
            <polygon id="Fill-18" fill="#FFFFFF" points="76.4492258 0.0324580645 71.260129 13.0190387 72.3445806 16.0098774 76.8593548 4.69316774 82.9869677 20.0264581 83.8374194 20.0264581 84.5109032 18.1502645 77.2703226 0.0324580645"></polygon>
            <polygon id="Fill-20" fill="#FFFFFF" points="98.1188839 13.7233871 101.196948 6.57003226 99.9950774 3.72680645 93.1939806 19.7033871 95.5968839 19.7033871 97.2390774 15.774871 105.155658 15.774871 104.275852 13.7233871"></polygon>
            <polygon id="Fill-22" fill="#FFFFFF" points="101.578561 0.0324580645 100.757465 1.87929677 108.379658 19.7035548 110.813594 19.7035548 102.429013 0.0324580645"></polygon>
            <mask id="mask-4" fill="white">
                <use xlink:href="#path-3"></use>
            </mask>
            <g id="Clip-25"></g>
            <polygon id="Fill-24" fill="#FFFFFF" mask="url(#mask-4)" points="112.015548 2.40709677 127.934258 2.40709677 127.934258 0.354774194 112.015548 0.354774194"></polygon>
            <polygon id="Fill-26" fill="#FFFFFF" mask="url(#mask-4)" points="118.816645 19.7029677 121.103806 19.7029677 121.103806 3.84296774 118.816645 3.84296774"></polygon>
            <path d="M127.978206,18.1225032 L127.716529,18.1225032 L127.716529,18.5343097 L127.978206,18.5343097 C128.103174,18.5343097 128.1904,18.4470839 128.1904,18.3346968 C128.1904,18.209729 128.103174,18.1225032 127.978206,18.1225032" id="Fill-27" fill="#FFFFFF" mask="url(#mask-4)"></path>
            <path d="M128.333735,19.3686581 L127.941219,18.8453032 L127.717284,18.8453032 L127.717284,19.3686581 L127.354961,19.3686581 L127.354961,17.8053032 L127.983994,17.8053032 C128.315284,17.8053032 128.55851,18.0049161 128.55851,18.3278194 C128.55851,18.5274323 128.463735,18.6775613 128.302703,18.7639484 L128.737994,19.3686581 L128.333735,19.3686581 Z M127.96051,17.0445935 C127.130187,17.0445935 126.4458,17.736529 126.4458,18.5894968 C126.4458,19.4374323 127.130187,20.128529 127.96051,20.128529 C128.788316,20.128529 129.4618,19.4374323 129.4618,18.5894968 C129.4618,17.736529 128.788316,17.0445935 127.96051,17.0445935 Z" id="Fill-28" fill="#FFFFFF" mask="url(#mask-4)"></path>
            <polygon id="Fill-29" fill="#2672FB" mask="url(#mask-4)" points="3.1792129 40.2578129 2.08050323 40.2578129 2.08050323 30.2788452 7.7552129 30.2788452 7.7552129 31.3624581 3.1792129 31.3624581 3.1792129 34.6694903 7.7552129 34.6694903 7.7552129 35.7531032 3.1792129 35.7531032"></polygon>
            <path d="M9.59483871,40.2580645 L10.6641935,40.2580645 L10.6641935,32.9017419 L9.59483871,32.9017419 L9.59483871,40.2580645 Z M9.59483871,31.6612903 L10.6641935,31.6612903 L10.6641935,30.2790968 L9.59483871,30.2790968 L9.59483871,31.6612903 Z" id="Fill-30" fill="#2672FB" mask="url(#mask-4)"></path>
            <path d="M13.8432387,38.5893677 C13.8432387,39.0607226 14.0143355,39.2318194 14.5276258,39.2318194 C14.6438477,39.0705624 14.7198907,39.0705624 14.7557548,39.2318194 C14.791619,39.3930763 14.791619,39.7349903 14.7557548,40.2575613 L14.5276258,40.2575613 C13.1596903,40.2575613 12.7747226,39.7593677 12.7747226,38.5038194 L12.7747226,30.2785935 L13.8432387,30.2785935 L13.8432387,38.5893677 Z" id="Fill-31" fill="#2672FB" mask="url(#mask-4)"></path>
            <path d="M20.9149871,35.5670774 C20.9149871,34.3417226 20.0595032,33.7286258 19.1050516,33.7286258 C18.1489226,33.7286258 17.2942774,34.3417226 17.2942774,35.5670774 L17.2942774,35.8379806 L20.9149871,35.8379806 L20.9149871,35.5670774 Z M20.8722129,37.9481742 L21.9700839,37.9481742 C21.784729,39.7874645 20.3874387,40.4005613 19.1050516,40.4005613 C17.7362774,40.4005613 16.2249226,39.6876581 16.2249226,37.5204323 L16.2249226,35.5821742 C16.2249226,33.4149484 17.7362774,32.7020452 19.1050516,32.7020452 C20.4738258,32.7020452 21.9843419,33.4149484 21.9843419,35.5821742 L21.9843419,36.8217871 L17.2942774,36.8217871 L17.2942774,37.5346903 C17.2942774,38.7608839 18.1489226,39.3739806 19.1050516,39.3739806 C19.9462774,39.3739806 20.7011161,38.9034645 20.8722129,37.9481742 Z" id="Fill-32" fill="#2672FB" mask="url(#mask-4)"></path>
            <path d="M26.5049871,37.306729 L27.6313742,37.306729 C27.802471,38.5891161 28.6722129,39.3162774 29.740729,39.3162774 C30.8671161,39.3162774 31.6521484,38.7895677 31.6521484,37.734471 C31.6521484,36.8353742 31.1673742,36.2944065 30.0409871,35.980729 L28.7711806,35.6242774 C27.2891806,35.2107935 26.6760839,33.9996968 26.6760839,32.7869226 C26.6760839,31.0767935 28.0297613,30.1357613 29.6275032,30.1357613 C31.3518903,30.1357613 32.4212452,31.104471 32.6359548,32.8020194 L31.508729,32.8020194 C31.2948581,31.846729 30.6960194,31.2193742 29.6275032,31.2193742 C28.4298258,31.2193742 27.7873742,31.9180194 27.7873742,32.7869226 C27.7873742,33.6994387 28.2436323,34.2706 29.2710516,34.5557613 L30.4393742,34.8828581 C31.8509226,35.2820839 32.7634387,36.1518258 32.7634387,37.734471 C32.7634387,39.3313742 31.7368581,40.3998903 29.740729,40.3998903 C27.9307935,40.3998903 26.6475677,39.216471 26.5049871,37.306729" id="Fill-33" fill="#2672FB" mask="url(#mask-4)"></path>
            <path d="M38.9235097,35.5670774 C38.9235097,34.3417226 38.0671871,33.7286258 37.1127355,33.7286258 C36.1574452,33.7286258 35.3028,34.3417226 35.3028,35.5670774 L35.3028,35.8379806 L38.9235097,35.8379806 L38.9235097,35.5670774 Z M38.8798968,37.9481742 L39.9786065,37.9481742 C39.7924129,39.7874645 38.3959613,40.4005613 37.1127355,40.4005613 C35.7439613,40.4005613 34.2326065,39.6876581 34.2326065,37.5204323 L34.2326065,35.5821742 C34.2326065,33.4149484 35.7439613,32.7020452 37.1127355,32.7020452 C38.4815097,32.7020452 39.9920258,33.4149484 39.9920258,35.5821742 L39.9920258,36.8217871 L35.3028,36.8217871 L35.3028,37.5346903 C35.3028,38.7608839 36.1574452,39.3739806 37.1127355,39.3739806 C37.9539613,39.3739806 38.7096387,38.9034645 38.8798968,37.9481742 Z" id="Fill-34" fill="#2672FB" mask="url(#mask-4)"></path>
            <path d="M47.4063871,35.2255548 L46.3227742,35.2255548 C46.1801935,34.2274903 45.3968387,33.7284581 44.5413548,33.7284581 C43.5852258,33.7284581 42.7305806,34.3415548 42.7305806,35.5669097 L42.7305806,37.5345226 C42.7305806,38.7607161 43.5852258,39.3738129 44.5413548,39.3738129 C45.3968387,39.3738129 46.1801935,38.8756194 46.3227742,37.8767161 L47.4063871,37.8767161 C47.2495484,39.7730387 45.8388387,40.4003935 44.5413548,40.4003935 C43.1725806,40.4003935 41.6612258,39.7017484 41.6612258,37.5202645 L41.6612258,35.5820065 C41.6612258,33.4147806 43.1725806,32.7018774 44.5413548,32.7018774 C45.8388387,32.7018774 47.2495484,33.3292323 47.4063871,35.2255548" id="Fill-35" fill="#2672FB" mask="url(#mask-4)"></path>
            <path d="M49.1035161,37.5631226 L49.1035161,32.9015742 L50.172871,32.9015742 L50.172871,37.4918323 C50.172871,38.8035742 51.071129,39.3738968 51.940871,39.3738968 C52.839129,39.3738968 53.708871,38.7465419 53.708871,37.5346065 L53.708871,32.9015742 L54.7782258,32.9015742 L54.7782258,40.2578968 L53.708871,40.2578968 L53.708871,39.5022194 C53.3381613,40.0868 52.5682258,40.4004774 51.940871,40.4004774 C50.7289355,40.4004774 49.1035161,39.7446065 49.1035161,37.5631226" id="Fill-36" fill="#2672FB" mask="url(#mask-4)"></path>
            <path d="M57.9861226,33.6717613 C58.3568323,33.0720839 59.1267677,32.7735032 59.7968968,32.7735032 L60.2674129,32.7735032 L60.2674129,33.7992452 L59.7968968,33.7992452 C58.8424452,33.7992452 57.9861226,34.4123419 57.9861226,35.6385355 L57.9861226,40.2581484 L56.9176065,40.2581484 L56.9176065,32.9018258 L57.9861226,32.9018258 L57.9861226,33.6717613 Z" id="Fill-37" fill="#2672FB" mask="url(#mask-4)"></path>
            <path d="M61.5797419,40.2580645 L62.6482581,40.2580645 L62.6482581,32.9017419 L61.5797419,32.9017419 L61.5797419,40.2580645 Z M61.5797419,31.6612903 L62.6482581,31.6612903 L62.6482581,30.2790968 L61.5797419,30.2790968 L61.5797419,31.6612903 Z" id="Fill-38" fill="#2672FB" mask="url(#mask-4)"></path>
            <path d="M66.1987677,38.5893677 C66.1987677,39.0607226 66.3698645,39.2318194 66.8823161,39.2318194 L68.0095419,39.2318194 L68.0095419,40.2575613 L66.8823161,40.2575613 C65.5143806,40.2575613 65.1294129,39.7593677 65.1294129,38.5038194 L65.1294129,33.9278194 L64.0885742,33.9278194 L64.0885742,32.9020774 L65.1294129,32.9020774 L65.1294129,31.2330452 L66.1987677,31.2330452 L66.1987677,32.9020774 L68.0095419,32.9020774 L68.0095419,33.9278194 L66.1987677,33.9278194 L66.1987677,38.5893677 Z" id="Fill-39" fill="#2672FB" mask="url(#mask-4)"></path>
            <path d="M71.8305355,42.1252 C71.6309226,42.6955226 71.1318903,42.8666194 70.2059548,42.8808774 L69.7916323,42.8808774 L69.7916323,41.8551355 L70.3334387,41.8551355 C70.7896968,41.8551355 70.8895032,41.6840387 70.9750516,41.4265548 L71.3591806,40.3714581 L68.6660839,32.9019097 L69.8058903,32.9019097 L71.9160839,38.8752 L74.0254387,32.9019097 L75.1669226,32.9019097 L71.8305355,42.1252 Z" id="Fill-40" fill="#2672FB" mask="url(#mask-4)"></path>
            <path d="M4.13425161,48.4147677 C3.62096129,48.4147677 3.44986452,48.5858645 3.44986452,49.0563806 L3.44986452,50.0108323 L5.26063871,50.0108323 L5.26063871,51.0382516 L3.44986452,51.0382516 L3.44986452,57.3679935 L2.38050968,57.3679935 L2.38050968,51.0382516 L1.33967097,51.0382516 L1.33967097,50.0108323 L2.38050968,50.0108323 L2.38050968,49.141929 C2.38050968,47.8872194 2.76547742,47.3881871 4.13425161,47.3881871 L5.26063871,47.3881871 L5.26063871,48.4147677 L4.13425161,48.4147677 Z" id="Fill-41" fill="#2672FB" mask="url(#mask-4)"></path>
            <path d="M10.9209226,52.6770903 C10.9209226,51.4508968 10.0646,50.8386387 9.11014839,50.8386387 C8.15485806,50.8386387 7.3002129,51.4508968 7.3002129,52.6770903 L7.3002129,54.6447032 C7.3002129,55.8708968 8.15485806,56.4839935 9.11014839,56.4839935 C10.0646,56.4839935 10.9209226,55.8708968 10.9209226,54.6447032 L10.9209226,52.6770903 Z M11.9894387,54.6304452 C11.9894387,56.797671 10.4789226,57.5105742 9.11014839,57.5105742 C7.74137419,57.5105742 6.23001935,56.797671 6.23001935,54.6304452 L6.23001935,52.6921871 C6.23001935,50.5249613 7.74137419,49.8120581 9.11014839,49.8120581 C10.4789226,49.8120581 11.9894387,50.5249613 11.9894387,52.6921871 L11.9894387,54.6304452 Z" id="Fill-42" fill="#2672FB" mask="url(#mask-4)"></path>
            <path d="M14.9989806,50.7810194 C15.3688516,50.1821806 16.1387871,49.8836 16.8089161,49.8836 L17.280271,49.8836 L17.280271,50.9093419 L16.8089161,50.9093419 C15.8544645,50.9093419 14.9989806,51.5224387 14.9989806,52.7486323 L14.9989806,57.3682452 L13.9296258,57.3682452 L13.9296258,50.0110839 L14.9989806,50.0110839 L14.9989806,50.7810194 Z" id="Fill-43" fill="#2672FB" mask="url(#mask-4)"></path>
            <path d="M28.0014129,50.3395226 L26.9035419,50.3395226 C26.7894774,49.0135226 25.9054774,48.3291355 24.7941871,48.3291355 C23.6107677,48.3291355 22.6697355,49.113329 22.6697355,50.6246839 L22.6697355,54.131329 C22.6697355,55.6426839 23.6107677,56.4268774 24.7941871,56.4268774 C25.9054774,56.4268774 26.7894774,55.7424903 26.9035419,54.4164903 L28.0014129,54.4164903 C27.8873484,56.341329 26.6192194,57.5104903 24.7941871,57.5104903 C22.8827677,57.5104903 21.5718645,56.2281032 21.5718645,54.131329 L21.5718645,50.6246839 C21.5718645,48.5287484 22.8827677,47.2463613 24.7941871,47.2463613 C26.6192194,47.2463613 27.8873484,48.4146839 28.0014129,50.3395226" id="Fill-44" fill="#2672FB" mask="url(#mask-4)"></path>
            <path d="M35.5293355,52.6918516 L35.5293355,57.3676581 L34.4599806,57.3676581 L34.4599806,52.6767548 C34.4599806,51.4514 33.6044968,50.8383032 32.6492065,50.8383032 C31.6947548,50.8383032 30.8384323,51.4514 30.8384323,52.6767548 L30.8384323,57.3676581 L29.7699161,57.3676581 L29.7699161,47.3886903 L30.8384323,47.3886903 L30.8384323,50.7099806 C31.2099806,50.1111419 31.9799161,49.8117226 32.6492065,49.8117226 C34.0179806,49.8117226 35.5293355,50.5246258 35.5293355,52.6918516" id="Fill-45" fill="#2672FB" mask="url(#mask-4)"></path>
            <path d="M38.6384323,50.7810194 C39.0083032,50.1821806 39.7782387,49.8836 40.4483677,49.8836 L40.9197226,49.8836 L40.9197226,50.9093419 L40.4483677,50.9093419 C39.4939161,50.9093419 38.6384323,51.5224387 38.6384323,52.7486323 L38.6384323,57.3682452 L37.5690774,57.3682452 L37.5690774,50.0110839 L38.6384323,50.0110839 L38.6384323,50.7810194 Z" id="Fill-46" fill="#2672FB" mask="url(#mask-4)"></path>
            <path d="M46.6938194,52.6770903 C46.6938194,51.4508968 45.8374968,50.8386387 44.8830452,50.8386387 C43.9277548,50.8386387 43.0731097,51.4508968 43.0731097,52.6770903 L43.0731097,54.6447032 C43.0731097,55.8708968 43.9277548,56.4839935 44.8830452,56.4839935 C45.8374968,56.4839935 46.6938194,55.8708968 46.6938194,54.6447032 L46.6938194,52.6770903 Z M47.7623355,54.6304452 C47.7623355,56.797671 46.2518194,57.5105742 44.8830452,57.5105742 C43.514271,57.5105742 42.0029161,56.797671 42.0029161,54.6304452 L42.0029161,52.6921871 C42.0029161,50.5249613 43.514271,49.8120581 44.8830452,49.8120581 C46.2518194,49.8120581 47.7623355,50.5249613 47.7623355,52.6921871 L47.7623355,54.6304452 Z" id="Fill-47" fill="#2672FB" mask="url(#mask-4)"></path>
            <path d="M58.655329,57.3678258 L58.655329,52.5922129 C58.655329,51.4943419 57.7990065,50.838471 56.9594581,50.838471 C56.0888774,50.838471 55.2484903,51.4943419 55.2484903,52.6769226 L55.2484903,57.3678258 L54.1782968,57.3678258 L54.1782968,52.5922129 C54.1782968,51.4943419 53.3236516,50.838471 52.4824258,50.838471 C51.6126839,50.838471 50.7714581,51.4943419 50.7714581,52.6769226 L50.7714581,57.3678258 L49.7021032,57.3678258 L49.7021032,50.0115032 L50.7714581,50.0115032 L50.7714581,50.7101484 C51.127071,50.1113097 51.9406194,49.8118903 52.4824258,49.8118903 C53.3093935,49.8118903 54.2068129,50.1532452 54.7058452,50.9667935 C55.2057161,50.1532452 56.1182323,49.8118903 56.9443613,49.8118903 C58.2703613,49.8118903 59.7238452,50.6095032 59.7238452,52.6920194 L59.7238452,57.3678258 L58.655329,57.3678258 Z" id="Fill-48" fill="#2672FB" mask="url(#mask-4)"></path>
            <path d="M66.2552968,52.6770903 C66.2552968,51.4508968 65.3998129,50.8386387 64.4453613,50.8386387 C63.4892323,50.8386387 62.6345871,51.4508968 62.6345871,52.6770903 L62.6345871,52.9479935 L66.2552968,52.9479935 L66.2552968,52.6770903 Z M66.2125226,55.0581871 L67.3103935,55.0581871 C67.1250387,56.8974774 65.7277484,57.5105742 64.4453613,57.5105742 C63.0765871,57.5105742 61.5652323,56.797671 61.5652323,54.6304452 L61.5652323,52.6921871 C61.5652323,50.5249613 63.0765871,49.8120581 64.4453613,49.8120581 C65.8141355,49.8120581 67.3246516,50.5249613 67.3246516,52.6921871 L67.3246516,53.9318 L62.6345871,53.9318 L62.6345871,54.6447032 C62.6345871,55.8708968 63.4892323,56.4839935 64.4453613,56.4839935 C65.2865871,56.4839935 66.0414258,56.0134774 66.2125226,55.0581871 Z" id="Fill-49" fill="#2672FB" mask="url(#mask-4)"></path>
        </g>
    </g>
</svg>